<mxfile host="app.diagrams.net" modified="2021-11-01T23:42:18.767Z" agent="5.0 (Macintosh; Intel Mac OS X 10_15_7) AppleWebKit/537.36 (KHTML, like Gecko) Chrome/95.0.4638.54 Safari/537.36 Edg/95.0.1020.40" etag="I7y5iv4fXXFU6qZJnP67" version="15.6.5" type="github">
  <diagram id="C5RBs43oDa-KdzZeNtuy" name="Page-1">
    <mxGraphModel dx="1426" dy="729" grid="1" gridSize="10" guides="1" tooltips="1" connect="1" arrows="1" fold="1" page="1" pageScale="1" pageWidth="827" pageHeight="1169" math="0" shadow="0">
      <root>
        <mxCell id="WIyWlLk6GJQsqaUBKTNV-0" />
        <mxCell id="WIyWlLk6GJQsqaUBKTNV-1" parent="WIyWlLk6GJQsqaUBKTNV-0" />
        <mxCell id="RVjRkeRHaAizrNb8GUoN-22" style="edgeStyle=orthogonalEdgeStyle;rounded=0;orthogonalLoop=1;jettySize=auto;html=1;labelBackgroundColor=default;fontColor=default;strokeColor=default;" edge="1" parent="WIyWlLk6GJQsqaUBKTNV-1" source="zkfFHV4jXpPFQw0GAbJ--0" target="RVjRkeRHaAizrNb8GUoN-23">
          <mxGeometry relative="1" as="geometry">
            <mxPoint x="280" y="220" as="targetPoint" />
            <Array as="points">
              <mxPoint x="320" y="150" />
            </Array>
          </mxGeometry>
        </mxCell>
        <mxCell id="RVjRkeRHaAizrNb8GUoN-63" value="1" style="edgeLabel;html=1;align=center;verticalAlign=middle;resizable=0;points=[];fontColor=default;" vertex="1" connectable="0" parent="RVjRkeRHaAizrNb8GUoN-22">
          <mxGeometry x="-0.9048" relative="1" as="geometry">
            <mxPoint as="offset" />
          </mxGeometry>
        </mxCell>
        <mxCell id="RVjRkeRHaAizrNb8GUoN-64" value="n" style="edgeLabel;html=1;align=center;verticalAlign=middle;resizable=0;points=[];fontColor=default;" vertex="1" connectable="0" parent="RVjRkeRHaAizrNb8GUoN-22">
          <mxGeometry x="0.8286" relative="1" as="geometry">
            <mxPoint as="offset" />
          </mxGeometry>
        </mxCell>
        <mxCell id="zkfFHV4jXpPFQw0GAbJ--0" value="Pedido" style="swimlane;fontStyle=2;align=center;verticalAlign=top;childLayout=stackLayout;horizontal=1;startSize=26;horizontalStack=0;resizeParent=1;resizeLast=0;collapsible=1;marginBottom=0;rounded=0;shadow=0;strokeWidth=1;fontColor=default;fillColor=default;strokeColor=default;" parent="WIyWlLk6GJQsqaUBKTNV-1" vertex="1">
          <mxGeometry x="40" y="70" width="160" height="104" as="geometry">
            <mxRectangle x="40" y="70" width="160" height="26" as="alternateBounds" />
          </mxGeometry>
        </mxCell>
        <mxCell id="zkfFHV4jXpPFQw0GAbJ--1" value="numero" style="text;align=left;verticalAlign=top;spacingLeft=4;spacingRight=4;overflow=hidden;rotatable=0;points=[[0,0.5],[1,0.5]];portConstraint=eastwest;fontColor=default;" parent="zkfFHV4jXpPFQw0GAbJ--0" vertex="1">
          <mxGeometry y="26" width="160" height="26" as="geometry" />
        </mxCell>
        <mxCell id="zkfFHV4jXpPFQw0GAbJ--2" value="criado_em" style="text;align=left;verticalAlign=top;spacingLeft=4;spacingRight=4;overflow=hidden;rotatable=0;points=[[0,0.5],[1,0.5]];portConstraint=eastwest;rounded=0;shadow=0;html=0;fontColor=default;" parent="zkfFHV4jXpPFQw0GAbJ--0" vertex="1">
          <mxGeometry y="52" width="160" height="26" as="geometry" />
        </mxCell>
        <mxCell id="RVjRkeRHaAizrNb8GUoN-83" value="codigo_medico" style="text;align=left;verticalAlign=top;spacingLeft=4;spacingRight=4;overflow=hidden;rotatable=0;points=[[0,0.5],[1,0.5]];portConstraint=eastwest;rounded=0;shadow=0;html=0;fontColor=default;" vertex="1" parent="zkfFHV4jXpPFQw0GAbJ--0">
          <mxGeometry y="78" width="160" height="26" as="geometry" />
        </mxCell>
        <mxCell id="RVjRkeRHaAizrNb8GUoN-5" style="edgeStyle=orthogonalEdgeStyle;rounded=0;orthogonalLoop=1;jettySize=auto;html=1;labelBackgroundColor=default;fontColor=default;strokeColor=default;" edge="1" parent="WIyWlLk6GJQsqaUBKTNV-1" source="zkfFHV4jXpPFQw0GAbJ--2" target="RVjRkeRHaAizrNb8GUoN-6">
          <mxGeometry relative="1" as="geometry">
            <mxPoint x="350" y="135" as="targetPoint" />
          </mxGeometry>
        </mxCell>
        <mxCell id="RVjRkeRHaAizrNb8GUoN-43" value="1" style="edgeLabel;html=1;align=center;verticalAlign=middle;resizable=0;points=[];fontColor=default;" vertex="1" connectable="0" parent="RVjRkeRHaAizrNb8GUoN-5">
          <mxGeometry x="-0.8861" y="1" relative="1" as="geometry">
            <mxPoint as="offset" />
          </mxGeometry>
        </mxCell>
        <mxCell id="RVjRkeRHaAizrNb8GUoN-44" value="n" style="edgeLabel;html=1;align=center;verticalAlign=middle;resizable=0;points=[];fontColor=default;" vertex="1" connectable="0" parent="RVjRkeRHaAizrNb8GUoN-5">
          <mxGeometry x="0.7848" y="1" relative="1" as="geometry">
            <mxPoint as="offset" />
          </mxGeometry>
        </mxCell>
        <mxCell id="RVjRkeRHaAizrNb8GUoN-6" value="Prescricao" style="swimlane;fontStyle=0;childLayout=stackLayout;horizontal=1;startSize=30;horizontalStack=0;resizeParent=1;resizeParentMax=0;resizeLast=0;collapsible=1;marginBottom=0;fontColor=default;strokeColor=default;fillColor=default;" vertex="1" parent="WIyWlLk6GJQsqaUBKTNV-1">
          <mxGeometry x="430" y="20" width="140" height="240" as="geometry">
            <mxRectangle x="430" y="20" width="90" height="30" as="alternateBounds" />
          </mxGeometry>
        </mxCell>
        <mxCell id="RVjRkeRHaAizrNb8GUoN-7" value="codigo" style="text;strokeColor=none;fillColor=none;align=left;verticalAlign=middle;spacingLeft=4;spacingRight=4;overflow=hidden;points=[[0,0.5],[1,0.5]];portConstraint=eastwest;rotatable=0;fontColor=default;" vertex="1" parent="RVjRkeRHaAizrNb8GUoN-6">
          <mxGeometry y="30" width="140" height="30" as="geometry" />
        </mxCell>
        <mxCell id="RVjRkeRHaAizrNb8GUoN-89" value="codigo_pedido" style="text;strokeColor=none;fillColor=none;align=left;verticalAlign=middle;spacingLeft=4;spacingRight=4;overflow=hidden;points=[[0,0.5],[1,0.5]];portConstraint=eastwest;rotatable=0;fontColor=default;" vertex="1" parent="RVjRkeRHaAizrNb8GUoN-6">
          <mxGeometry y="60" width="140" height="30" as="geometry" />
        </mxCell>
        <mxCell id="RVjRkeRHaAizrNb8GUoN-8" value="volume_total" style="text;strokeColor=none;fillColor=none;align=left;verticalAlign=middle;spacingLeft=4;spacingRight=4;overflow=hidden;points=[[0,0.5],[1,0.5]];portConstraint=eastwest;rotatable=0;fontColor=default;" vertex="1" parent="RVjRkeRHaAizrNb8GUoN-6">
          <mxGeometry y="90" width="140" height="30" as="geometry" />
        </mxCell>
        <mxCell id="RVjRkeRHaAizrNb8GUoN-65" value="numero_etapas" style="text;strokeColor=none;fillColor=none;align=left;verticalAlign=middle;spacingLeft=4;spacingRight=4;overflow=hidden;points=[[0,0.5],[1,0.5]];portConstraint=eastwest;rotatable=0;fontColor=default;" vertex="1" parent="RVjRkeRHaAizrNb8GUoN-6">
          <mxGeometry y="120" width="140" height="30" as="geometry" />
        </mxCell>
        <mxCell id="RVjRkeRHaAizrNb8GUoN-66" value="dieta_basica" style="text;strokeColor=none;fillColor=none;align=left;verticalAlign=middle;spacingLeft=4;spacingRight=4;overflow=hidden;points=[[0,0.5],[1,0.5]];portConstraint=eastwest;rotatable=0;fontColor=default;" vertex="1" parent="RVjRkeRHaAizrNb8GUoN-6">
          <mxGeometry y="150" width="140" height="30" as="geometry" />
        </mxCell>
        <mxCell id="RVjRkeRHaAizrNb8GUoN-67" value="intervalo_de_aplicacao" style="text;strokeColor=none;fillColor=none;align=left;verticalAlign=middle;spacingLeft=4;spacingRight=4;overflow=hidden;points=[[0,0.5],[1,0.5]];portConstraint=eastwest;rotatable=0;fontColor=default;" vertex="1" parent="RVjRkeRHaAizrNb8GUoN-6">
          <mxGeometry y="180" width="140" height="30" as="geometry" />
        </mxCell>
        <mxCell id="RVjRkeRHaAizrNb8GUoN-82" value="horarios" style="text;strokeColor=none;fillColor=none;align=left;verticalAlign=middle;spacingLeft=4;spacingRight=4;overflow=hidden;points=[[0,0.5],[1,0.5]];portConstraint=eastwest;rotatable=0;fontColor=default;" vertex="1" parent="RVjRkeRHaAizrNb8GUoN-6">
          <mxGeometry y="210" width="140" height="30" as="geometry" />
        </mxCell>
        <mxCell id="RVjRkeRHaAizrNb8GUoN-84" style="edgeStyle=orthogonalEdgeStyle;rounded=0;orthogonalLoop=1;jettySize=auto;html=1;entryX=0.45;entryY=1.038;entryDx=0;entryDy=0;entryPerimeter=0;labelBackgroundColor=default;fontColor=default;strokeColor=default;" edge="1" parent="WIyWlLk6GJQsqaUBKTNV-1" source="RVjRkeRHaAizrNb8GUoN-12" target="RVjRkeRHaAizrNb8GUoN-83">
          <mxGeometry relative="1" as="geometry" />
        </mxCell>
        <mxCell id="RVjRkeRHaAizrNb8GUoN-85" value="1" style="edgeLabel;html=1;align=center;verticalAlign=middle;resizable=0;points=[];fontColor=default;" vertex="1" connectable="0" parent="RVjRkeRHaAizrNb8GUoN-84">
          <mxGeometry x="-0.8341" y="2" relative="1" as="geometry">
            <mxPoint as="offset" />
          </mxGeometry>
        </mxCell>
        <mxCell id="RVjRkeRHaAizrNb8GUoN-86" value="n" style="edgeLabel;html=1;align=center;verticalAlign=middle;resizable=0;points=[];fontColor=default;" vertex="1" connectable="0" parent="RVjRkeRHaAizrNb8GUoN-84">
          <mxGeometry x="0.8616" relative="1" as="geometry">
            <mxPoint as="offset" />
          </mxGeometry>
        </mxCell>
        <mxCell id="RVjRkeRHaAizrNb8GUoN-12" value="Usuario (MÃ©dico)" style="swimlane;fontStyle=0;childLayout=stackLayout;horizontal=1;startSize=30;horizontalStack=0;resizeParent=1;resizeParentMax=0;resizeLast=0;collapsible=1;marginBottom=0;fontColor=default;strokeColor=default;fillColor=default;" vertex="1" parent="WIyWlLk6GJQsqaUBKTNV-1">
          <mxGeometry x="40" y="370" width="140" height="120" as="geometry">
            <mxRectangle x="20" y="370" width="70" height="30" as="alternateBounds" />
          </mxGeometry>
        </mxCell>
        <mxCell id="RVjRkeRHaAizrNb8GUoN-13" value="codigo" style="text;strokeColor=none;fillColor=none;align=left;verticalAlign=middle;spacingLeft=4;spacingRight=4;overflow=hidden;points=[[0,0.5],[1,0.5]];portConstraint=eastwest;rotatable=0;fontColor=default;" vertex="1" parent="RVjRkeRHaAizrNb8GUoN-12">
          <mxGeometry y="30" width="140" height="30" as="geometry" />
        </mxCell>
        <mxCell id="RVjRkeRHaAizrNb8GUoN-14" value="nome" style="text;strokeColor=none;fillColor=none;align=left;verticalAlign=middle;spacingLeft=4;spacingRight=4;overflow=hidden;points=[[0,0.5],[1,0.5]];portConstraint=eastwest;rotatable=0;fontColor=default;" vertex="1" parent="RVjRkeRHaAizrNb8GUoN-12">
          <mxGeometry y="60" width="140" height="30" as="geometry" />
        </mxCell>
        <mxCell id="RVjRkeRHaAizrNb8GUoN-93" value="email" style="text;strokeColor=none;fillColor=none;align=left;verticalAlign=middle;spacingLeft=4;spacingRight=4;overflow=hidden;points=[[0,0.5],[1,0.5]];portConstraint=eastwest;rotatable=0;fontColor=default;" vertex="1" parent="RVjRkeRHaAizrNb8GUoN-12">
          <mxGeometry y="90" width="140" height="30" as="geometry" />
        </mxCell>
        <mxCell id="RVjRkeRHaAizrNb8GUoN-60" style="edgeStyle=orthogonalEdgeStyle;rounded=0;orthogonalLoop=1;jettySize=auto;html=1;entryX=0.486;entryY=1;entryDx=0;entryDy=0;entryPerimeter=0;labelBackgroundColor=default;fontColor=default;strokeColor=default;" edge="1" parent="WIyWlLk6GJQsqaUBKTNV-1" source="RVjRkeRHaAizrNb8GUoN-17" target="RVjRkeRHaAizrNb8GUoN-24">
          <mxGeometry relative="1" as="geometry" />
        </mxCell>
        <mxCell id="RVjRkeRHaAizrNb8GUoN-61" value="1" style="edgeLabel;html=1;align=center;verticalAlign=middle;resizable=0;points=[];fontColor=default;" vertex="1" connectable="0" parent="RVjRkeRHaAizrNb8GUoN-60">
          <mxGeometry x="-0.7222" relative="1" as="geometry">
            <mxPoint as="offset" />
          </mxGeometry>
        </mxCell>
        <mxCell id="RVjRkeRHaAizrNb8GUoN-62" value="n" style="edgeLabel;html=1;align=center;verticalAlign=middle;resizable=0;points=[];fontColor=default;" vertex="1" connectable="0" parent="RVjRkeRHaAizrNb8GUoN-60">
          <mxGeometry x="0.5556" y="-1" relative="1" as="geometry">
            <mxPoint as="offset" />
          </mxGeometry>
        </mxCell>
        <mxCell id="RVjRkeRHaAizrNb8GUoN-17" value="Hospital" style="swimlane;fontStyle=0;childLayout=stackLayout;horizontal=1;startSize=30;horizontalStack=0;resizeParent=1;resizeParentMax=0;resizeLast=0;collapsible=1;marginBottom=0;fontColor=default;strokeColor=default;fillColor=default;" vertex="1" parent="WIyWlLk6GJQsqaUBKTNV-1">
          <mxGeometry x="250" y="370" width="140" height="120" as="geometry">
            <mxRectangle x="250" y="370" width="80" height="30" as="alternateBounds" />
          </mxGeometry>
        </mxCell>
        <mxCell id="RVjRkeRHaAizrNb8GUoN-18" value="codigo" style="text;strokeColor=none;fillColor=none;align=left;verticalAlign=middle;spacingLeft=4;spacingRight=4;overflow=hidden;points=[[0,0.5],[1,0.5]];portConstraint=eastwest;rotatable=0;fontColor=default;" vertex="1" parent="RVjRkeRHaAizrNb8GUoN-17">
          <mxGeometry y="30" width="140" height="30" as="geometry" />
        </mxCell>
        <mxCell id="RVjRkeRHaAizrNb8GUoN-19" value="nome" style="text;strokeColor=none;fillColor=none;align=left;verticalAlign=middle;spacingLeft=4;spacingRight=4;overflow=hidden;points=[[0,0.5],[1,0.5]];portConstraint=eastwest;rotatable=0;fontColor=default;" vertex="1" parent="RVjRkeRHaAizrNb8GUoN-17">
          <mxGeometry y="60" width="140" height="30" as="geometry" />
        </mxCell>
        <mxCell id="RVjRkeRHaAizrNb8GUoN-20" value="local" style="text;strokeColor=none;fillColor=none;align=left;verticalAlign=middle;spacingLeft=4;spacingRight=4;overflow=hidden;points=[[0,0.5],[1,0.5]];portConstraint=eastwest;rotatable=0;fontColor=default;" vertex="1" parent="RVjRkeRHaAizrNb8GUoN-17">
          <mxGeometry y="90" width="140" height="30" as="geometry" />
        </mxCell>
        <mxCell id="RVjRkeRHaAizrNb8GUoN-23" value="PedidoHospital" style="swimlane;fontStyle=0;childLayout=stackLayout;horizontal=1;startSize=30;horizontalStack=0;resizeParent=1;resizeParentMax=0;resizeLast=0;collapsible=1;marginBottom=0;fontColor=default;strokeColor=default;fillColor=default;" vertex="1" parent="WIyWlLk6GJQsqaUBKTNV-1">
          <mxGeometry x="250" y="230" width="140" height="120" as="geometry">
            <mxRectangle x="250" y="230" width="110" height="30" as="alternateBounds" />
          </mxGeometry>
        </mxCell>
        <mxCell id="RVjRkeRHaAizrNb8GUoN-87" value="codigo_pedido" style="text;strokeColor=none;fillColor=none;align=left;verticalAlign=middle;spacingLeft=4;spacingRight=4;overflow=hidden;points=[[0,0.5],[1,0.5]];portConstraint=eastwest;rotatable=0;fontColor=default;" vertex="1" parent="RVjRkeRHaAizrNb8GUoN-23">
          <mxGeometry y="30" width="140" height="30" as="geometry" />
        </mxCell>
        <mxCell id="RVjRkeRHaAizrNb8GUoN-88" value="codigo_hospital" style="text;strokeColor=none;fillColor=none;align=left;verticalAlign=middle;spacingLeft=4;spacingRight=4;overflow=hidden;points=[[0,0.5],[1,0.5]];portConstraint=eastwest;rotatable=0;fontColor=default;" vertex="1" parent="RVjRkeRHaAizrNb8GUoN-23">
          <mxGeometry y="60" width="140" height="30" as="geometry" />
        </mxCell>
        <mxCell id="RVjRkeRHaAizrNb8GUoN-24" value="leito" style="text;strokeColor=none;fillColor=none;align=left;verticalAlign=middle;spacingLeft=4;spacingRight=4;overflow=hidden;points=[[0,0.5],[1,0.5]];portConstraint=eastwest;rotatable=0;fontColor=default;" vertex="1" parent="RVjRkeRHaAizrNb8GUoN-23">
          <mxGeometry y="90" width="140" height="30" as="geometry" />
        </mxCell>
        <mxCell id="RVjRkeRHaAizrNb8GUoN-30" value="Paciente" style="swimlane;fontStyle=0;childLayout=stackLayout;horizontal=1;startSize=30;horizontalStack=0;resizeParent=1;resizeParentMax=0;resizeLast=0;collapsible=1;marginBottom=0;fontColor=default;strokeColor=default;fillColor=default;" vertex="1" parent="WIyWlLk6GJQsqaUBKTNV-1">
          <mxGeometry x="940" y="20" width="140" height="210" as="geometry">
            <mxRectangle x="540" y="-20" width="80" height="30" as="alternateBounds" />
          </mxGeometry>
        </mxCell>
        <mxCell id="RVjRkeRHaAizrNb8GUoN-31" value="codigo" style="text;strokeColor=none;fillColor=none;align=left;verticalAlign=middle;spacingLeft=4;spacingRight=4;overflow=hidden;points=[[0,0.5],[1,0.5]];portConstraint=eastwest;rotatable=0;fontColor=default;" vertex="1" parent="RVjRkeRHaAizrNb8GUoN-30">
          <mxGeometry y="30" width="140" height="30" as="geometry" />
        </mxCell>
        <mxCell id="RVjRkeRHaAizrNb8GUoN-32" value="nome" style="text;strokeColor=none;fillColor=none;align=left;verticalAlign=middle;spacingLeft=4;spacingRight=4;overflow=hidden;points=[[0,0.5],[1,0.5]];portConstraint=eastwest;rotatable=0;fontColor=default;" vertex="1" parent="RVjRkeRHaAizrNb8GUoN-30">
          <mxGeometry y="60" width="140" height="30" as="geometry" />
        </mxCell>
        <mxCell id="RVjRkeRHaAizrNb8GUoN-33" value="nascimento" style="text;strokeColor=none;fillColor=none;align=left;verticalAlign=middle;spacingLeft=4;spacingRight=4;overflow=hidden;points=[[0,0.5],[1,0.5]];portConstraint=eastwest;rotatable=0;fontColor=default;" vertex="1" parent="RVjRkeRHaAizrNb8GUoN-30">
          <mxGeometry y="90" width="140" height="30" as="geometry" />
        </mxCell>
        <mxCell id="RVjRkeRHaAizrNb8GUoN-42" value="idade_gestacao" style="text;strokeColor=none;fillColor=none;align=left;verticalAlign=middle;spacingLeft=4;spacingRight=4;overflow=hidden;points=[[0,0.5],[1,0.5]];portConstraint=eastwest;rotatable=0;fontColor=default;" vertex="1" parent="RVjRkeRHaAizrNb8GUoN-30">
          <mxGeometry y="120" width="140" height="30" as="geometry" />
        </mxCell>
        <mxCell id="RVjRkeRHaAizrNb8GUoN-34" value="peso_nascimento" style="text;strokeColor=none;fillColor=none;align=left;verticalAlign=middle;spacingLeft=4;spacingRight=4;overflow=hidden;points=[[0,0.5],[1,0.5]];portConstraint=eastwest;rotatable=0;fontColor=default;" vertex="1" parent="RVjRkeRHaAizrNb8GUoN-30">
          <mxGeometry y="150" width="140" height="30" as="geometry" />
        </mxCell>
        <mxCell id="RVjRkeRHaAizrNb8GUoN-41" value="peso_internacao" style="text;strokeColor=none;fillColor=none;align=left;verticalAlign=middle;spacingLeft=4;spacingRight=4;overflow=hidden;points=[[0,0.5],[1,0.5]];portConstraint=eastwest;rotatable=0;fontColor=default;" vertex="1" parent="RVjRkeRHaAizrNb8GUoN-30">
          <mxGeometry y="180" width="140" height="30" as="geometry" />
        </mxCell>
        <mxCell id="RVjRkeRHaAizrNb8GUoN-35" value="PrescricaoPaciente" style="swimlane;fontStyle=0;childLayout=stackLayout;horizontal=1;startSize=30;horizontalStack=0;resizeParent=1;resizeParentMax=0;resizeLast=0;collapsible=1;marginBottom=0;fontColor=default;strokeColor=default;fillColor=default;" vertex="1" parent="WIyWlLk6GJQsqaUBKTNV-1">
          <mxGeometry x="700" y="20" width="140" height="120" as="geometry" />
        </mxCell>
        <mxCell id="RVjRkeRHaAizrNb8GUoN-36" value="peso" style="text;strokeColor=none;fillColor=none;align=left;verticalAlign=middle;spacingLeft=4;spacingRight=4;overflow=hidden;points=[[0,0.5],[1,0.5]];portConstraint=eastwest;rotatable=0;fontColor=default;" vertex="1" parent="RVjRkeRHaAizrNb8GUoN-35">
          <mxGeometry y="30" width="140" height="30" as="geometry" />
        </mxCell>
        <mxCell id="RVjRkeRHaAizrNb8GUoN-90" value="codigo_prescricao" style="text;strokeColor=none;fillColor=none;align=left;verticalAlign=middle;spacingLeft=4;spacingRight=4;overflow=hidden;points=[[0,0.5],[1,0.5]];portConstraint=eastwest;rotatable=0;fontColor=default;" vertex="1" parent="RVjRkeRHaAizrNb8GUoN-35">
          <mxGeometry y="60" width="140" height="30" as="geometry" />
        </mxCell>
        <mxCell id="RVjRkeRHaAizrNb8GUoN-91" value="codigo_paciente" style="text;strokeColor=none;fillColor=none;align=left;verticalAlign=middle;spacingLeft=4;spacingRight=4;overflow=hidden;points=[[0,0.5],[1,0.5]];portConstraint=eastwest;rotatable=0;fontColor=default;" vertex="1" parent="RVjRkeRHaAizrNb8GUoN-35">
          <mxGeometry y="90" width="140" height="30" as="geometry" />
        </mxCell>
        <mxCell id="RVjRkeRHaAizrNb8GUoN-47" style="edgeStyle=orthogonalEdgeStyle;rounded=0;orthogonalLoop=1;jettySize=auto;html=1;entryX=0;entryY=0.5;entryDx=0;entryDy=0;labelBackgroundColor=default;fontColor=default;strokeColor=default;" edge="1" parent="WIyWlLk6GJQsqaUBKTNV-1" source="RVjRkeRHaAizrNb8GUoN-7" target="RVjRkeRHaAizrNb8GUoN-36">
          <mxGeometry relative="1" as="geometry" />
        </mxCell>
        <mxCell id="RVjRkeRHaAizrNb8GUoN-48" value="1" style="edgeLabel;html=1;align=center;verticalAlign=middle;resizable=0;points=[];fontColor=default;" vertex="1" connectable="0" parent="RVjRkeRHaAizrNb8GUoN-47">
          <mxGeometry x="-0.8205" relative="1" as="geometry">
            <mxPoint as="offset" />
          </mxGeometry>
        </mxCell>
        <mxCell id="RVjRkeRHaAizrNb8GUoN-49" value="n" style="edgeLabel;html=1;align=center;verticalAlign=middle;resizable=0;points=[];fontColor=default;" vertex="1" connectable="0" parent="RVjRkeRHaAizrNb8GUoN-47">
          <mxGeometry x="0.5641" y="2" relative="1" as="geometry">
            <mxPoint as="offset" />
          </mxGeometry>
        </mxCell>
        <mxCell id="RVjRkeRHaAizrNb8GUoN-50" style="edgeStyle=orthogonalEdgeStyle;rounded=0;orthogonalLoop=1;jettySize=auto;html=1;entryX=1;entryY=0.5;entryDx=0;entryDy=0;labelBackgroundColor=default;fontColor=default;strokeColor=default;" edge="1" parent="WIyWlLk6GJQsqaUBKTNV-1" source="RVjRkeRHaAizrNb8GUoN-33" target="RVjRkeRHaAizrNb8GUoN-36">
          <mxGeometry relative="1" as="geometry" />
        </mxCell>
        <mxCell id="RVjRkeRHaAizrNb8GUoN-51" value="1" style="edgeLabel;html=1;align=center;verticalAlign=middle;resizable=0;points=[];fontColor=default;" vertex="1" connectable="0" parent="RVjRkeRHaAizrNb8GUoN-50">
          <mxGeometry x="-0.7429" relative="1" as="geometry">
            <mxPoint as="offset" />
          </mxGeometry>
        </mxCell>
        <mxCell id="RVjRkeRHaAizrNb8GUoN-52" value="n" style="edgeLabel;html=1;align=center;verticalAlign=middle;resizable=0;points=[];fontColor=default;" vertex="1" connectable="0" parent="RVjRkeRHaAizrNb8GUoN-50">
          <mxGeometry x="0.6286" relative="1" as="geometry">
            <mxPoint as="offset" />
          </mxGeometry>
        </mxCell>
        <mxCell id="RVjRkeRHaAizrNb8GUoN-57" value="" style="endArrow=classic;startArrow=classic;html=1;rounded=0;labelBackgroundColor=default;fontColor=default;strokeColor=default;exitX=1;exitY=0.5;exitDx=0;exitDy=0;entryX=0;entryY=0.5;entryDx=0;entryDy=0;" edge="1" parent="WIyWlLk6GJQsqaUBKTNV-1" source="RVjRkeRHaAizrNb8GUoN-13" target="RVjRkeRHaAizrNb8GUoN-18">
          <mxGeometry width="50" height="50" relative="1" as="geometry">
            <mxPoint x="390" y="380" as="sourcePoint" />
            <mxPoint x="440" y="330" as="targetPoint" />
          </mxGeometry>
        </mxCell>
        <mxCell id="RVjRkeRHaAizrNb8GUoN-58" value="n" style="edgeLabel;html=1;align=center;verticalAlign=middle;resizable=0;points=[];fontColor=default;" vertex="1" connectable="0" parent="RVjRkeRHaAizrNb8GUoN-57">
          <mxGeometry x="-0.76" y="1" relative="1" as="geometry">
            <mxPoint as="offset" />
          </mxGeometry>
        </mxCell>
        <mxCell id="RVjRkeRHaAizrNb8GUoN-59" value="n" style="edgeLabel;html=1;align=center;verticalAlign=middle;resizable=0;points=[];fontColor=default;" vertex="1" connectable="0" parent="RVjRkeRHaAizrNb8GUoN-57">
          <mxGeometry x="0.76" y="-1" relative="1" as="geometry">
            <mxPoint as="offset" />
          </mxGeometry>
        </mxCell>
        <mxCell id="RVjRkeRHaAizrNb8GUoN-68" value="Insumo" style="swimlane;fontStyle=0;childLayout=stackLayout;horizontal=1;startSize=30;horizontalStack=0;resizeParent=1;resizeParentMax=0;resizeLast=0;collapsible=1;marginBottom=0;labelBackgroundColor=default;fontColor=default;strokeColor=default;fillColor=default;" vertex="1" parent="WIyWlLk6GJQsqaUBKTNV-1">
          <mxGeometry x="960" y="330" width="140" height="120" as="geometry" />
        </mxCell>
        <mxCell id="RVjRkeRHaAizrNb8GUoN-69" value="codigo" style="text;strokeColor=none;fillColor=none;align=left;verticalAlign=middle;spacingLeft=4;spacingRight=4;overflow=hidden;points=[[0,0.5],[1,0.5]];portConstraint=eastwest;rotatable=0;labelBackgroundColor=default;fontColor=default;" vertex="1" parent="RVjRkeRHaAizrNb8GUoN-68">
          <mxGeometry y="30" width="140" height="30" as="geometry" />
        </mxCell>
        <mxCell id="RVjRkeRHaAizrNb8GUoN-70" value="nome" style="text;strokeColor=none;fillColor=none;align=left;verticalAlign=middle;spacingLeft=4;spacingRight=4;overflow=hidden;points=[[0,0.5],[1,0.5]];portConstraint=eastwest;rotatable=0;labelBackgroundColor=default;fontColor=default;" vertex="1" parent="RVjRkeRHaAizrNb8GUoN-68">
          <mxGeometry y="60" width="140" height="30" as="geometry" />
        </mxCell>
        <mxCell id="RVjRkeRHaAizrNb8GUoN-71" value="quantidade" style="text;strokeColor=none;fillColor=none;align=left;verticalAlign=middle;spacingLeft=4;spacingRight=4;overflow=hidden;points=[[0,0.5],[1,0.5]];portConstraint=eastwest;rotatable=0;labelBackgroundColor=default;fontColor=default;" vertex="1" parent="RVjRkeRHaAizrNb8GUoN-68">
          <mxGeometry y="90" width="140" height="30" as="geometry" />
        </mxCell>
        <mxCell id="RVjRkeRHaAizrNb8GUoN-72" value="InsumoPrescricao" style="swimlane;fontStyle=0;childLayout=stackLayout;horizontal=1;startSize=30;horizontalStack=0;resizeParent=1;resizeParentMax=0;resizeLast=0;collapsible=1;marginBottom=0;labelBackgroundColor=default;fontColor=default;strokeColor=default;fillColor=default;" vertex="1" parent="WIyWlLk6GJQsqaUBKTNV-1">
          <mxGeometry x="690" y="190" width="200" height="270" as="geometry" />
        </mxCell>
        <mxCell id="RVjRkeRHaAizrNb8GUoN-73" value="codigo_insumo" style="text;strokeColor=none;fillColor=none;align=left;verticalAlign=middle;spacingLeft=4;spacingRight=4;overflow=hidden;points=[[0,0.5],[1,0.5]];portConstraint=eastwest;rotatable=0;labelBackgroundColor=default;fontColor=default;" vertex="1" parent="RVjRkeRHaAizrNb8GUoN-72">
          <mxGeometry y="30" width="200" height="30" as="geometry" />
        </mxCell>
        <mxCell id="RVjRkeRHaAizrNb8GUoN-92" value="codigo_prescricao" style="text;strokeColor=none;fillColor=none;align=left;verticalAlign=middle;spacingLeft=4;spacingRight=4;overflow=hidden;points=[[0,0.5],[1,0.5]];portConstraint=eastwest;rotatable=0;labelBackgroundColor=default;fontColor=default;" vertex="1" parent="RVjRkeRHaAizrNb8GUoN-72">
          <mxGeometry y="60" width="200" height="30" as="geometry" />
        </mxCell>
        <mxCell id="RVjRkeRHaAizrNb8GUoN-74" value="nome" style="text;strokeColor=none;fillColor=none;align=left;verticalAlign=middle;spacingLeft=4;spacingRight=4;overflow=hidden;points=[[0,0.5],[1,0.5]];portConstraint=eastwest;rotatable=0;labelBackgroundColor=default;fontColor=default;" vertex="1" parent="RVjRkeRHaAizrNb8GUoN-72">
          <mxGeometry y="90" width="200" height="30" as="geometry" />
        </mxCell>
        <mxCell id="RVjRkeRHaAizrNb8GUoN-75" value="dosagem" style="text;strokeColor=none;fillColor=none;align=left;verticalAlign=middle;spacingLeft=4;spacingRight=4;overflow=hidden;points=[[0,0.5],[1,0.5]];portConstraint=eastwest;rotatable=0;labelBackgroundColor=default;fontColor=default;" vertex="1" parent="RVjRkeRHaAizrNb8GUoN-72">
          <mxGeometry y="120" width="200" height="30" as="geometry" />
        </mxCell>
        <mxCell id="RVjRkeRHaAizrNb8GUoN-76" value="unidade" style="text;strokeColor=none;fillColor=none;align=left;verticalAlign=middle;spacingLeft=4;spacingRight=4;overflow=hidden;points=[[0,0.5],[1,0.5]];portConstraint=eastwest;rotatable=0;labelBackgroundColor=default;fontColor=default;" vertex="1" parent="RVjRkeRHaAizrNb8GUoN-72">
          <mxGeometry y="150" width="200" height="30" as="geometry" />
        </mxCell>
        <mxCell id="RVjRkeRHaAizrNb8GUoN-77" value="total" style="text;strokeColor=none;fillColor=none;align=left;verticalAlign=middle;spacingLeft=4;spacingRight=4;overflow=hidden;points=[[0,0.5],[1,0.5]];portConstraint=eastwest;rotatable=0;labelBackgroundColor=default;fontColor=default;" vertex="1" parent="RVjRkeRHaAizrNb8GUoN-72">
          <mxGeometry y="180" width="200" height="30" as="geometry" />
        </mxCell>
        <mxCell id="RVjRkeRHaAizrNb8GUoN-78" value="modo [em_separado, manipulado]" style="text;strokeColor=none;fillColor=none;align=left;verticalAlign=middle;spacingLeft=4;spacingRight=4;overflow=hidden;points=[[0,0.5],[1,0.5]];portConstraint=eastwest;rotatable=0;labelBackgroundColor=default;fontColor=default;" vertex="1" parent="RVjRkeRHaAizrNb8GUoN-72">
          <mxGeometry y="210" width="200" height="30" as="geometry" />
        </mxCell>
        <mxCell id="RVjRkeRHaAizrNb8GUoN-79" value="tipo [dieta_indutrial, ativo]" style="text;strokeColor=none;fillColor=none;align=left;verticalAlign=middle;spacingLeft=4;spacingRight=4;overflow=hidden;points=[[0,0.5],[1,0.5]];portConstraint=eastwest;rotatable=0;labelBackgroundColor=default;fontColor=default;" vertex="1" parent="RVjRkeRHaAizrNb8GUoN-72">
          <mxGeometry y="240" width="200" height="30" as="geometry" />
        </mxCell>
        <mxCell id="RVjRkeRHaAizrNb8GUoN-80" style="edgeStyle=orthogonalEdgeStyle;rounded=0;orthogonalLoop=1;jettySize=auto;html=1;entryX=0;entryY=0.5;entryDx=0;entryDy=0;labelBackgroundColor=default;fontColor=default;strokeColor=default;" edge="1" parent="WIyWlLk6GJQsqaUBKTNV-1" source="RVjRkeRHaAizrNb8GUoN-65" target="RVjRkeRHaAizrNb8GUoN-75">
          <mxGeometry relative="1" as="geometry" />
        </mxCell>
        <mxCell id="RVjRkeRHaAizrNb8GUoN-81" style="edgeStyle=orthogonalEdgeStyle;rounded=0;orthogonalLoop=1;jettySize=auto;html=1;labelBackgroundColor=default;fontColor=default;strokeColor=default;" edge="1" parent="WIyWlLk6GJQsqaUBKTNV-1" source="RVjRkeRHaAizrNb8GUoN-70" target="RVjRkeRHaAizrNb8GUoN-75">
          <mxGeometry relative="1" as="geometry" />
        </mxCell>
      </root>
    </mxGraphModel>
  </diagram>
</mxfile>
